umbra-0.ufo
<glyph name="ampersand" format="1">
  <advance width="487"/>
  <unicode hex="0026"/>
  <outline>
    <contour>
      <point x="431" y="458" type="line"/>
      <point x="398" y="458" type="line" smooth="yes"/>
      <point x="350" y="458"/>
      <point x="316" y="447"/>
      <point x="316" y="409" type="curve" smooth="yes"/>
      <point x="316" y="378"/>
      <point x="343" y="359"/>
      <point x="376" y="359" type="curve" smooth="yes"/>
      <point x="399" y="359"/>
      <point x="431" y="372"/>
      <point x="431" y="403" type="curve" smooth="yes"/>
    </contour>
    <contour>
      <point x="341" y="606" type="curve" smooth="yes"/>
      <point x="341" y="578"/>
      <point x="350" y="553"/>
      <point x="398" y="553" type="curve" smooth="yes"/>
      <point x="598" y="553" type="line"/>
      <point x="598" y="458" type="line"/>
      <point x="546" y="458" type="line"/>
      <point x="550" y="442"/>
      <point x="551" y="420"/>
      <point x="551" y="376" type="curve" smooth="yes"/>
      <point x="551" y="281"/>
      <point x="457" y="234"/>
      <point x="368" y="234" type="curve" smooth="yes"/>
      <point x="281" y="234"/>
      <point x="176" y="284"/>
      <point x="176" y="401" type="curve" smooth="yes"/>
      <point x="176" y="457"/>
      <point x="207" y="496"/>
      <point x="261" y="516" type="curve"/>
      <point x="216" y="534"/>
      <point x="190" y="567"/>
      <point x="190" y="622" type="curve" smooth="yes"/>
      <point x="190" y="719"/>
      <point x="275" y="764"/>
      <point x="362" y="764" type="curve" smooth="yes"/>
      <point x="449" y="764"/>
      <point x="509" y="714"/>
      <point x="529" y="687" type="curve"/>
      <point x="489" y="597" type="line"/>
      <point x="449" y="635"/>
      <point x="411" y="644"/>
      <point x="383" y="644" type="curve" smooth="yes"/>
      <point x="355" y="644"/>
      <point x="341" y="629"/>
    </contour>
  </outline>
</glyph>
<glyph name="parenleft" format="1">
  <advance width="232"/>
  <unicode hex="0028"/>
  <outline>
    <contour>
      <point x="283" y="209" type="line"/>
      <point x="208" y="294"/>
      <point x="171" y="399"/>
      <point x="171" y="504" type="curve" smooth="yes"/>
      <point x="171" y="609"/>
      <point x="208" y="714"/>
      <point x="283" y="799" type="curve"/>
      <point x="373" y="799" type="line"/>
      <point x="323" y="724"/>
      <point x="299" y="614"/>
      <point x="299" y="504" type="curve" smooth="yes"/>
      <point x="299" y="394"/>
      <point x="323" y="284"/>
      <point x="373" y="209" type="curve"/>
    </contour>
  </outline>
</glyph>
<glyph name="parenright" format="1">
  <advance width="232"/>
  <unicode hex="0029"/>
  <outline>
    <contour>
      <point x="231" y="800" type="line"/>
      <point x="306" y="715"/>
      <point x="343" y="610"/>
      <point x="343" y="505" type="curve" smooth="yes"/>
      <point x="343" y="400"/>
      <point x="306" y="295"/>
      <point x="231" y="210" type="curve"/>
      <point x="141" y="210" type="line"/>
      <point x="191" y="285"/>
      <point x="215" y="395"/>
      <point x="215" y="505" type="curve" smooth="yes"/>
      <point x="215" y="615"/>
      <point x="191" y="725"/>
      <point x="141" y="800" type="curve"/>
    </contour>
  </outline>
</glyph>
<glyph name="asterisk" format="1">
  <advance width="459"/>
  <unicode hex="002A"/>
  <outline>
    <contour>
      <point x="333" y="566" type="line"/>
      <point x="306" y="709" type="line"/>
      <point x="436" y="709" type="line"/>
      <point x="408" y="566" type="line"/>
      <point x="520" y="660" type="line"/>
      <point x="585" y="548" type="line"/>
      <point x="446" y="499" type="line"/>
      <point x="585" y="450" type="line"/>
      <point x="520" y="338" type="line"/>
      <point x="408" y="432" type="line"/>
      <point x="436" y="289" type="line"/>
      <point x="306" y="289" type="line"/>
      <point x="333" y="432" type="line"/>
      <point x="221" y="338" type="line"/>
      <point x="156" y="450" type="line"/>
      <point x="295" y="499" type="line"/>
      <point x="156" y="548" type="line"/>
      <point x="221" y="660" type="line"/>
    </contour>
  </outline>
</glyph>
<glyph name="two" format="1">
  <advance width="458"/>
  <unicode hex="0032"/>
  <outline>
    <contour>
      <point x="564" y="592" type="curve" smooth="yes"/>
      <point x="564" y="496"/>
      <point x="451" y="433"/>
      <point x="367" y="371" type="curve"/>
      <point x="561" y="371" type="line"/>
      <point x="561" y="251" type="line"/>
      <point x="171" y="251" type="line"/>
      <point x="171" y="401"/>
      <point x="419" y="524"/>
      <point x="419" y="594" type="curve" smooth="yes"/>
      <point x="419" y="615"/>
      <point x="400" y="639"/>
      <point x="352" y="639" type="curve" smooth="yes"/>
      <point x="304" y="639"/>
      <point x="255" y="600"/>
      <point x="215" y="562" type="curve"/>
      <point x="175" y="677" type="line"/>
      <point x="215" y="724"/>
      <point x="275" y="759"/>
      <point x="372" y="759" type="curve" smooth="yes"/>
      <point x="449" y="759"/>
      <point x="564" y="719"/>
    </contour>
  </outline>
</glyph>
<glyph name="five" format="1">
  <advance width="449"/>
  <unicode hex="0035"/>
  <outline>
    <contour>
      <point x="206" y="488" type="line"/>
      <point x="236" y="749" type="line"/>
      <point x="536" y="749" type="line"/>
      <point x="526" y="634" type="line"/>
      <point x="343" y="634" type="line"/>
      <point x="337" y="583" type="line"/>
      <point x="452" y="582"/>
      <point x="555" y="527"/>
      <point x="555" y="401" type="curve" smooth="yes"/>
      <point x="555" y="274"/>
      <point x="440" y="234"/>
      <point x="353" y="234" type="curve" smooth="yes"/>
      <point x="276" y="234"/>
      <point x="206" y="269"/>
      <point x="166" y="306" type="curve"/>
      <point x="186" y="431" type="line"/>
      <point x="226" y="393"/>
      <point x="275" y="359"/>
      <point x="333" y="359" type="curve" smooth="yes"/>
      <point x="381" y="359"/>
      <point x="410" y="378"/>
      <point x="410" y="429" type="curve" smooth="yes"/>
      <point x="410" y="487"/>
      <point x="331" y="488"/>
      <point x="283" y="488" type="curve" smooth="yes"/>
    </contour>
  </outline>
</glyph>
<glyph name="semicolon" format="1">
  <advance width="291"/>
  <unicode hex="003B"/>
  <outline>
    <contour>
      <point x="226" y="129" type="line"/>
      <point x="226" y="389" type="line"/>
      <point x="356" y="389" type="line"/>
      <point x="356" y="249" type="line"/>
    </contour>
    <contour>
      <point x="286" y="506" type="line"/>
      <point x="181" y="611" type="line"/>
      <point x="286" y="717" type="line"/>
      <point x="392" y="611" type="line"/>
    </contour>
  </outline>
</glyph>
<glyph name="equal" format="1">
  <advance width="560"/>
  <unicode hex="003D"/>
  <outline>
    <contour>
      <point x="226" y="359" type="line"/>
      <point x="226" y="469" type="line"/>
      <point x="616" y="469" type="line"/>
      <point x="616" y="359" type="line"/>
    </contour>
    <contour>
      <point x="226" y="539" type="line"/>
      <point x="226" y="649" type="line"/>
      <point x="616" y="649" type="line"/>
      <point x="616" y="539" type="line"/>
    </contour>
  </outline>
</glyph>
<glyph name="question" format="1">
  <advance width="464"/>
  <unicode hex="003F"/>
  <outline>
    <contour>
      <point x="308" y="453" type="line"/>
      <point x="278" y="553" type="line"/>
      <point x="348" y="553" type="line" smooth="yes"/>
      <point x="396" y="553"/>
      <point x="405" y="578"/>
      <point x="405" y="606" type="curve" smooth="yes"/>
      <point x="405" y="629"/>
      <point x="391" y="644"/>
      <point x="363" y="644" type="curve" smooth="yes"/>
      <point x="315" y="644"/>
      <point x="267" y="605"/>
      <point x="227" y="567" type="curve"/>
      <point x="187" y="677" type="line"/>
      <point x="237" y="734"/>
      <point x="297" y="764"/>
      <point x="364" y="764" type="curve" smooth="yes"/>
      <point x="471" y="764"/>
      <point x="556" y="719"/>
      <point x="556" y="622" type="curve" smooth="yes"/>
      <point x="556" y="547"/>
      <point x="508" y="514"/>
      <point x="433" y="503" type="curve"/>
      <point x="418" y="453" type="line"/>
    </contour>
    <contour>
      <point x="366" y="221" type="line"/>
      <point x="261" y="326" type="line"/>
      <point x="366" y="432" type="line"/>
      <point x="472" y="326" type="line"/>
    </contour>
  </outline>
</glyph>
<glyph name="A" format="1">
  <advance width="580"/>
  <unicode hex="0041"/>
  <outline>
    <contour>
      <point x="151" y="249" type="line"/>
      <point x="351" y="749" type="line"/>
      <point x="511" y="749" type="line"/>
      <point x="711" y="249" type="line"/>
      <point x="561" y="249" type="line"/>
      <point x="530" y="334" type="line"/>
      <point x="332" y="334" type="line"/>
      <point x="301" y="249" type="line"/>
    </contour>
    <contour>
      <point x="431" y="610" type="line"/>
      <point x="373" y="449" type="line"/>
      <point x="489" y="449" type="line"/>
    </contour>
  </outline>
</glyph>
<glyph name="B" format="1">
  <advance width="502"/>
  <unicode hex="0042"/>
  <outline>
    <contour>
      <point x="186" y="249" type="curve"/>
      <point x="186" y="749" type="line"/>
      <point x="259" y="749"/>
      <point x="333" y="749"/>
      <point x="406" y="749" type="curve" smooth="yes"/>
      <point x="523" y="749"/>
      <point x="598" y="694"/>
      <point x="598" y="607" type="curve" smooth="yes"/>
      <point x="598" y="553"/>
      <point x="575" y="523"/>
      <point x="535" y="507" type="curve"/>
      <point x="588" y="486"/>
      <point x="618" y="448"/>
      <point x="618" y="392" type="curve" smooth="yes"/>
      <point x="618" y="295"/>
      <point x="543" y="249"/>
      <point x="426" y="249" type="curve" smooth="yes"/>
      <point x="346" y="249"/>
      <point x="266" y="249"/>
    </contour>
    <contour>
      <point x="406" y="644" type="curve" smooth="yes"/>
      <point x="326" y="644" type="line"/>
      <point x="326" y="554" type="line"/>
      <point x="406" y="554" type="line" smooth="yes"/>
      <point x="434" y="554"/>
      <point x="453" y="569"/>
      <point x="453" y="597" type="curve" smooth="yes"/>
      <point x="453" y="625"/>
      <point x="434" y="644"/>
    </contour>
    <contour>
      <point x="326" y="459" type="line"/>
      <point x="326" y="359" type="line"/>
      <point x="416" y="359" type="line" smooth="yes"/>
      <point x="454" y="359"/>
      <point x="473" y="382"/>
      <point x="473" y="410" type="curve" smooth="yes"/>
      <point x="473" y="438"/>
      <point x="454" y="459"/>
      <point x="416" y="459" type="curve" smooth="yes"/>
    </contour>
  </outline>
</glyph>
<glyph name="C" format="1">
  <advance width="515"/>
  <unicode hex="0043"/>
  <outline>
    <contour>
      <point x="316" y="499" type="curve" smooth="yes"/>
      <point x="316" y="406"/>
      <point x="389" y="354"/>
      <point x="446" y="354" type="curve" smooth="yes"/>
      <point x="507" y="354"/>
      <point x="551" y="377"/>
      <point x="576" y="410" type="curve"/>
      <point x="616" y="283" type="line"/>
      <point x="584" y="251"/>
      <point x="537" y="229"/>
      <point x="456" y="229" type="curve" smooth="yes"/>
      <point x="281" y="229"/>
      <point x="171" y="350"/>
      <point x="171" y="499" type="curve" smooth="yes"/>
      <point x="171" y="648"/>
      <point x="281" y="769"/>
      <point x="456" y="769" type="curve" smooth="yes"/>
      <point x="537" y="769"/>
      <point x="584" y="747"/>
      <point x="616" y="715" type="curve"/>
      <point x="576" y="588" type="line"/>
      <point x="551" y="621"/>
      <point x="507" y="644"/>
      <point x="446" y="644" type="curve" smooth="yes"/>
      <point x="389" y="644"/>
      <point x="316" y="592"/>
    </contour>
  </outline>
</glyph>
<glyph name="H" format="1">
  <advance width="560"/>
  <unicode hex="0048"/>
  <outline>
    <contour>
      <point x="186" y="249" type="line"/>
      <point x="186" y="749" type="line"/>
      <point x="326" y="749" type="line"/>
      <point x="326" y="559" type="line"/>
      <point x="516" y="559" type="line"/>
      <point x="516" y="749" type="line"/>
      <point x="656" y="749" type="line"/>
      <point x="656" y="249" type="line"/>
      <point x="516" y="249" type="line"/>
      <point x="516" y="439" type="line"/>
      <point x="326" y="439" type="line"/>
      <point x="326" y="249" type="line"/>
    </contour>
  </outline>
</glyph>
<glyph name="N" format="1">
  <advance width="590"/>
  <unicode hex="004E"/>
  <outline>
    <contour>
      <point x="186" y="249" type="line"/>
      <point x="186" y="749" type="line"/>
      <point x="356" y="749" type="line"/>
      <point x="546" y="432" type="line"/>
      <point x="546" y="749" type="line"/>
      <point x="686" y="749" type="line"/>
      <point x="686" y="249" type="line"/>
      <point x="516" y="249" type="line"/>
      <point x="326" y="566" type="line"/>
      <point x="326" y="249" type="line"/>
    </contour>
  </outline>
</glyph>
<glyph name="O" format="1">
  <advance width="610"/>
  <unicode hex="004F"/>
  <outline>
    <contour>
      <point x="171" y="499" type="curve" smooth="yes"/>
      <point x="171" y="648"/>
      <point x="271" y="769"/>
      <point x="446" y="769" type="curve" smooth="yes"/>
      <point x="621" y="769"/>
      <point x="721" y="648"/>
      <point x="721" y="499" type="curve" smooth="yes"/>
      <point x="721" y="350"/>
      <point x="621" y="229"/>
      <point x="446" y="229" type="curve" smooth="yes"/>
      <point x="271" y="229"/>
      <point x="171" y="350"/>
    </contour>
    <contour>
      <point x="316" y="499" type="curve" smooth="yes"/>
      <point x="316" y="406"/>
      <point x="384" y="354"/>
      <point x="446" y="354" type="curve" smooth="yes"/>
      <point x="508" y="354"/>
      <point x="576" y="406"/>
      <point x="576" y="499" type="curve" smooth="yes"/>
      <point x="576" y="592"/>
      <point x="508" y="644"/>
      <point x="446" y="644" type="curve" smooth="yes"/>
      <point x="384" y="644"/>
      <point x="316" y="592"/>
    </contour>
  </outline>
</glyph>
<glyph name="R" format="1">
  <advance width="515"/>
  <unicode hex="0052"/>
  <outline>
    <contour>
      <point x="186" y="249" type="line"/>
      <point x="186" y="749" type="line"/>
      <point x="259" y="749"/>
      <point x="333" y="749"/>
      <point x="406" y="749" type="curve" smooth="yes"/>
      <point x="523" y="749"/>
      <point x="608" y="704"/>
      <point x="608" y="577" type="curve" smooth="yes"/>
      <point x="608" y="498"/>
      <point x="561" y="457"/>
      <point x="489" y="442" type="curve"/>
      <point x="636" y="249" type="line"/>
      <point x="476" y="249" type="line"/>
      <point x="326" y="439" type="line"/>
      <point x="326" y="249" type="line"/>
    </contour>
    <contour>
      <point x="393" y="634" type="curve" smooth="yes"/>
      <point x="326" y="634" type="line"/>
      <point x="326" y="519" type="line"/>
      <point x="393" y="519" type="line" smooth="yes"/>
      <point x="431" y="519"/>
      <point x="463" y="529"/>
      <point x="463" y="577" type="curve" smooth="yes"/>
      <point x="463" y="625"/>
      <point x="431" y="634"/>
    </contour>
  </outline>
</glyph>
<glyph name="S" format="1">
  <advance width="449"/>
  <unicode hex="0053"/>
  <outline>
    <contour>
      <point x="420" y="399" type="curve" smooth="yes"/>
      <point x="420" y="459"/>
      <point x="187" y="462"/>
      <point x="187" y="612" type="curve" smooth="yes"/>
      <point x="187" y="709"/>
      <point x="272" y="764"/>
      <point x="379" y="764" type="curve" smooth="yes"/>
      <point x="446" y="764"/>
      <point x="506" y="734"/>
      <point x="556" y="677" type="curve"/>
      <point x="516" y="567" type="line"/>
      <point x="476" y="605"/>
      <point x="428" y="644"/>
      <point x="380" y="644" type="curve" smooth="yes"/>
      <point x="352" y="644"/>
      <point x="342" y="630"/>
      <point x="342" y="612" type="curve" smooth="yes"/>
      <point x="342" y="552"/>
      <point x="565" y="545"/>
      <point x="565" y="401" type="curve" smooth="yes"/>
      <point x="565" y="274"/>
      <point x="470" y="234"/>
      <point x="363" y="234" type="curve" smooth="yes"/>
      <point x="266" y="234"/>
      <point x="196" y="269"/>
      <point x="156" y="316" type="curve"/>
      <point x="196" y="431" type="line"/>
      <point x="236" y="393"/>
      <point x="305" y="359"/>
      <point x="353" y="359" type="curve" smooth="yes"/>
      <point x="391" y="359"/>
      <point x="420" y="368"/>
    </contour>
  </outline>
</glyph>
<glyph name="T" format="1">
  <advance width="480"/>
  <unicode hex="0054"/>
  <outline>
    <contour>
      <point x="161" y="629" type="line"/>
      <point x="161" y="749" type="line"/>
      <point x="601" y="749" type="line"/>
      <point x="601" y="629" type="line"/>
      <point x="451" y="629" type="line"/>
      <point x="451" y="249" type="line"/>
      <point x="311" y="249" type="line"/>
      <point x="311" y="629" type="line"/>
    </contour>
  </outline>
</glyph>
<glyph name="W" format="1">
  <advance width="880"/>
  <unicode hex="0057"/>
  <outline>
    <contour>
      <point x="1001" y="749" type="line"/>
      <point x="811" y="249" type="line"/>
      <point x="651" y="249" type="line"/>
      <point x="583" y="444" type="line"/>
      <point x="511" y="249" type="line"/>
      <point x="351" y="249" type="line"/>
      <point x="161" y="749" type="line"/>
      <point x="311" y="749" type="line"/>
      <point x="435" y="384" type="line"/>
      <point x="522" y="602" type="line"/>
      <point x="461" y="749" type="line"/>
      <point x="621" y="749" type="line"/>
      <point x="733" y="401" type="line"/>
      <point x="851" y="749" type="line"/>
    </contour>
  </outline>
</glyph>
<glyph name="g" format="1">
  <advance width="489"/>
  <unicode hex="0067"/>
  <outline>
    <contour>
      <point x="455" y="307" type="line"/>
      <point x="424" y="277"/>
      <point x="383" y="259"/>
      <point x="338" y="259" type="curve" smooth="yes"/>
      <point x="231" y="259"/>
      <point x="176" y="344"/>
      <point x="176" y="451" type="curve" smooth="yes"/>
      <point x="176" y="558"/>
      <point x="231" y="644"/>
      <point x="338" y="644" type="curve" smooth="yes"/>
      <point x="383" y="644"/>
      <point x="424" y="628"/>
      <point x="455" y="599" type="curve"/>
      <point x="455" y="634" type="line"/>
      <point x="590" y="634" type="line"/>
      <point x="590" y="209" type="line" smooth="yes"/>
      <point x="590" y="112"/>
      <point x="495" y="57"/>
      <point x="408" y="57" type="curve" smooth="yes"/>
      <point x="331" y="57"/>
      <point x="261" y="82"/>
      <point x="201" y="119" type="curve"/>
      <point x="241" y="219" type="line"/>
      <point x="291" y="181"/>
      <point x="350" y="167"/>
      <point x="388" y="167" type="curve" smooth="yes"/>
      <point x="436" y="167"/>
      <point x="455" y="181"/>
      <point x="455" y="239" type="curve" smooth="yes"/>
    </contour>
    <contour>
      <point x="455" y="507" type="line"/>
      <point x="436" y="528"/>
      <point x="407" y="539"/>
      <point x="378" y="539" type="curve" smooth="yes"/>
      <point x="330" y="539"/>
      <point x="311" y="499"/>
      <point x="311" y="451" type="curve" smooth="yes"/>
      <point x="311" y="403"/>
      <point x="330" y="364"/>
      <point x="378" y="364" type="curve" smooth="yes"/>
      <point x="407" y="364"/>
      <point x="436" y="375"/>
      <point x="455" y="396" type="curve"/>
    </contour>
  </outline>
</glyph>
<glyph name="m" format="1">
  <advance width="693"/>
  <unicode hex="006D"/>
  <outline>
    <contour>
      <point x="181" y="249" type="line"/>
      <point x="181" y="634" type="line"/>
      <point x="316" y="634" type="line"/>
      <point x="316" y="568" type="line"/>
      <point x="346" y="615"/>
      <point x="390" y="644"/>
      <point x="433" y="644" type="curve" smooth="yes"/>
      <point x="493" y="644"/>
      <point x="528" y="617"/>
      <point x="544" y="569" type="curve"/>
      <point x="580" y="615"/>
      <point x="630" y="644"/>
      <point x="672" y="644" type="curve" smooth="yes"/>
      <point x="759" y="644"/>
      <point x="794" y="588"/>
      <point x="794" y="491" type="curve" smooth="yes"/>
      <point x="794" y="249" type="line"/>
      <point x="659" y="249" type="line"/>
      <point x="659" y="461" type="line" smooth="yes"/>
      <point x="659" y="519"/>
      <point x="650" y="539"/>
      <point x="622" y="539" type="curve" smooth="yes"/>
      <point x="595" y="539"/>
      <point x="571" y="520"/>
      <point x="555" y="495" type="curve"/>
      <point x="555" y="413"/>
      <point x="555" y="331"/>
      <point x="555" y="249" type="curve"/>
      <point x="420" y="249" type="line"/>
      <point x="420" y="461" type="line" smooth="yes"/>
      <point x="420" y="519"/>
      <point x="411" y="539"/>
      <point x="383" y="539" type="curve" smooth="yes"/>
      <point x="356" y="539"/>
      <point x="332" y="520"/>
      <point x="316" y="495" type="curve"/>
      <point x="316" y="249" type="line"/>
    </contour>
  </outline>
</glyph>
<glyph name="o" format="1">
  <advance width="474"/>
  <unicode hex="006F"/>
  <outline>
    <contour>
      <point x="306" y="441" type="curve" smooth="yes"/>
      <point x="306" y="393"/>
      <point x="330" y="354"/>
      <point x="378" y="354" type="curve" smooth="yes"/>
      <point x="426" y="354"/>
      <point x="450" y="393"/>
      <point x="450" y="441" type="curve" smooth="yes"/>
      <point x="450" y="489"/>
      <point x="426" y="529"/>
      <point x="378" y="529" type="curve" smooth="yes"/>
      <point x="330" y="529"/>
      <point x="306" y="489"/>
    </contour>
    <contour>
      <point x="176" y="441" type="curve" smooth="yes"/>
      <point x="176" y="568"/>
      <point x="261" y="644"/>
      <point x="378" y="644" type="curve" smooth="yes"/>
      <point x="495" y="644"/>
      <point x="580" y="568"/>
      <point x="580" y="441" type="curve" smooth="yes"/>
      <point x="580" y="314"/>
      <point x="495" y="239"/>
      <point x="378" y="239" type="curve" smooth="yes"/>
      <point x="261" y="239"/>
      <point x="176" y="324"/>
    </contour>
  </outline>
</glyph>
<glyph name="q" format="1">
  <advance width="499"/>
  <unicode hex="0071"/>
  <outline>
    <contour>
      <point x="605" y="634" type="line"/>
      <point x="605" y="104" type="line"/>
      <point x="470" y="104" type="line"/>
      <point x="470" y="288" type="line"/>
      <point x="439" y="257"/>
      <point x="398" y="239"/>
      <point x="353" y="239" type="curve" smooth="yes"/>
      <point x="246" y="239"/>
      <point x="181" y="325"/>
      <point x="181" y="442" type="curve" smooth="yes"/>
      <point x="181" y="559"/>
      <point x="246" y="644"/>
      <point x="353" y="644" type="curve" smooth="yes"/>
      <point x="398" y="644"/>
      <point x="439" y="624"/>
      <point x="470" y="592" type="curve"/>
      <point x="470" y="634" type="line"/>
    </contour>
    <contour>
      <point x="470" y="501" type="line"/>
      <point x="451" y="525"/>
      <point x="422" y="539"/>
      <point x="393" y="539" type="curve" smooth="yes"/>
      <point x="345" y="539"/>
      <point x="316" y="500"/>
      <point x="316" y="442" type="curve" smooth="yes"/>
      <point x="316" y="384"/>
      <point x="345" y="344"/>
      <point x="393" y="344" type="curve" smooth="yes"/>
      <point x="422" y="344"/>
      <point x="451" y="359"/>
      <point x="470" y="383" type="curve"/>
    </contour>
  </outline>
</glyph>
<glyph name="s" format="1">
  <advance width="374"/>
  <unicode hex="0073"/>
  <outline>
    <contour>
      <point x="355" y="361" type="curve" smooth="yes"/>
      <point x="355" y="411"/>
      <point x="187" y="407"/>
      <point x="187" y="527" type="curve" smooth="yes"/>
      <point x="187" y="624"/>
      <point x="262" y="649"/>
      <point x="339" y="649" type="curve" smooth="yes"/>
      <point x="376" y="649"/>
      <point x="426" y="634"/>
      <point x="476" y="587" type="curve"/>
      <point x="436" y="497" type="line"/>
      <point x="396" y="535"/>
      <point x="368" y="549"/>
      <point x="350" y="549" type="curve" smooth="yes"/>
      <point x="332" y="549"/>
      <point x="322" y="540"/>
      <point x="322" y="527" type="curve" smooth="yes"/>
      <point x="322" y="477"/>
      <point x="490" y="475"/>
      <point x="490" y="371" type="curve" smooth="yes"/>
      <point x="490" y="274"/>
      <point x="405" y="234"/>
      <point x="328" y="234" type="curve" smooth="yes"/>
      <point x="261" y="234"/>
      <point x="211" y="249"/>
      <point x="161" y="296" type="curve"/>
      <point x="201" y="386" type="line"/>
      <point x="241" y="348"/>
      <point x="290" y="334"/>
      <point x="308" y="334" type="curve" smooth="yes"/>
      <point x="336" y="334"/>
      <point x="355" y="340"/>
    </contour>
  </outline>
</glyph>
<glyph name="x" format="1">
  <advance width="465"/>
  <unicode hex="0078"/>
  <outline>
    <contour>
      <point x="373" y="547" type="line"/>
      <point x="441" y="634" type="line"/>
      <point x="596" y="634" type="line"/>
      <point x="451" y="448" type="line"/>
      <point x="606" y="249" type="line"/>
      <point x="451" y="249" type="line"/>
      <point x="373" y="348" type="line"/>
      <point x="296" y="249" type="line"/>
      <point x="141" y="249" type="line"/>
      <point x="296" y="448" type="line"/>
      <point x="151" y="634" type="line"/>
      <point x="306" y="634" type="line"/>
    </contour>
  </outline>
</glyph>
<glyph name="quotedblleft" format="1">
  <advance width="430"/>
  <unicode hex="201C"/>
  <outline>
    <contour>
      <point x="526" y="789" type="line"/>
      <point x="526" y="529" type="line"/>
      <point x="396" y="529" type="line"/>
      <point x="396" y="669" type="line"/>
    </contour>
    <contour>
      <point x="316" y="789" type="line"/>
      <point x="316" y="529" type="line"/>
      <point x="186" y="529" type="line"/>
      <point x="186" y="669" type="line"/>
    </contour>
  </outline>
</glyph>
